<svg width="14" height="18" viewBox="0 0 14 18" fill="none" xmlns="http://www.w3.org/2000/svg">
<path d="M11.1667 5.66663V4.83329C11.1667 2.53579 9.29749 0.666626 6.99999 0.666626C4.70249 0.666626 2.83333 2.53579 2.83333 4.83329V7.33329H1.99999C1.08083 7.33329 0.333328 8.08079 0.333328 8.99996V15.6666C0.333328 16.5858 1.08083 17.3333 1.99999 17.3333H12C12.9192 17.3333 13.6667 16.5858 13.6667 15.6666V8.99996C13.6667 8.08079 12.9192 7.33329 12 7.33329H4.49999V4.83329C4.49999 3.45496 5.62166 2.33329 6.99999 2.33329C8.37833 2.33329 9.49999 3.45496 9.49999 4.83329V5.66663H11.1667Z" fill="white"/>
</svg>
